<svg xmlns="http://www.w3.org/2000/svg" viewBox="0 0 614 614" width="614" height="614"><rect width="614" height="614" fill="#111827"/><path d="M320.25 142 L183 142.25 L183.25 150.75 L189.25 151 L199 152.75 L206 155.75 L211 160 L213.75 164 L216 168.75 L217.75 175 L219 182.75 L219.75 197.75 L219.75 383.25 L218.75 404.75 L216 425.5 L214 434.25 L209.75 445 L205.25 452 L200 457.25 L192.25 461.75 L184.75 463.75 L176.25 464 L170.75 463 L164.5 459.5 L160.75 455.75 L157.75 450 L156 441.5 L156.5 421.75 L154.75 413.75 L151.75 408 L147.25 403.25 L140 399.25 L135 398.25 L127.5 398.25 L120.75 400 L116.5 402.25 L112.75 405.25 L107.5 412.25 L105 418.5 L104.25 422.75 L104 430.25 L105.25 438.25 L108 445.25 L110.25 449.25 L114.25 454.75 L119.5 460 L125.75 464.5 L131.75 467.75 L141.75 471.75 L149.75 473.75 L160.75 475.5 L182.25 476.25 L192.25 475.5 L207.5 472.75 L223 467.5 L229.25 464.5 L237 459.75 L243.75 454.75 L250.25 448.75 L255.25 443 L261.5 434.25 L266.75 424.25 L270.75 413.5 L273.5 402.75 L275.75 389.5 L276.75 373.25 L276.75 221 L278 209.75 L279.75 200.5 L284.75 184.5 L289 175.5 L293.75 167.75 L300.5 159 L306.75 152.75 L315.5 145.75 L320 143 Z M425 138 L414.5 137.25 L395 137.25 L378.75 139.25 L369 141.25 L354 146 L341.5 152 L328.25 161 L319 170 L315.25 174.5 L309.25 183.75 L306 190 L302 200.75 L300.25 207.75 L298.5 220.5 L298.25 230 L299.25 240 L301 249 L303.25 256.5 L307 265.25 L311.25 272.75 L318 281.75 L331.75 295.25 L350.75 308.75 L368.75 318.75 L406.75 337.75 L420.75 345.75 L432.75 353.75 L442.75 362.75 L449 370.75 L454 380.25 L457 390 L458 396.25 L458.25 406.5 L457.75 412.5 L456 421.25 L453 429.25 L449.75 435.25 L444 443 L439 448 L435.25 451 L427.25 455.75 L416 460 L405.75 462 L399.25 462.5 L382.75 462 L369.5 459 L358 454 L347.25 447 L336.5 436.75 L327 424.25 L322.75 417.25 L316.75 405.25 L309.75 386 L305.75 367.5 L298.5 367.25 L297 392 L294 409.25 L292 416.75 L288 428 L281.75 441 L285.75 444.5 L291.75 448.5 L302.5 454.75 L320 462.75 L333.5 467.5 L349.5 471.75 L376.25 475.75 L392.25 476.5 L411 475.75 L424.75 473.75 L437.5 470.75 L454 464.5 L465.25 458.5 L473.75 452.75 L480 447.5 L490.5 436.5 L496.5 428 L501.5 419 L505.75 408 L508.5 397.25 L509.75 387.5 L509.75 371.5 L508.75 363.25 L506.5 353.75 L503.5 345 L499.5 336.75 L494.5 329 L487.75 320.5 L480.5 313.5 L470.25 305 L458.25 297.25 L438 286.25 L395.5 265.75 L375.75 254 L365.5 246 L359 239.25 L352.75 230.5 L348 219.25 L346.75 214 L346 206.5 L346.75 194.25 L350.75 181.25 L354 175 L358.75 168.75 L366 162 L370.75 158.75 L381.5 153.75 L395.5 150.75 L410 150.75 L421 152.75 L429.25 155.75 L440.25 162 L450.5 170.75 L461 183.75 L468 195.5 L472 203.75 L477 217 L480.25 230 L488.25 230.25 L489.25 229.75 L489.25 156 L488 155 L476 150 L457.75 144 L444.75 141 Z" fill="#fff"/></svg>